HIERARCHY
ROOT SpineBase
{
  OFFSET 0.000000 0.000000 0.000000
  CHANNELS 6 Xposition Yposition Zposition Zrotation Xrotation Yrotation
  JOINT SpineMid
  {
    OFFSET 0.000000 20.369466 0.000000
    CHANNELS 3 Zrotation Xrotation Yrotation
    JOINT SpineShoulder
    {
      OFFSET 0.573244 14.823669 -1.180390
      CHANNELS 3 Zrotation Xrotation Yrotation
      JOINT Neck
      {
        OFFSET 0.253106 4.670458 -0.525720
        CHANNELS 3 Zrotation Xrotation Yrotation
        JOINT Head
        {
          OFFSET -1.919491 14.410848 -0.557265
          CHANNELS 3 Zrotation Xrotation Yrotation
          End Site
          {
            OFFSET 0 0 0
          }
        }
      }
      JOINT ShoulderLeft
      {
        OFFSET -12.567033 5.150770 12.937574
        CHANNELS 3 Zrotation Xrotation Yrotation
        JOINT ElbowLeft
        {
          OFFSET -22.580128 -9.291585 4.828894
          CHANNELS 3 Zrotation Xrotation Yrotation
          JOINT WristLeft
          {
            OFFSET 21.743211 7.655101 -3.258483
            CHANNELS 3 Zrotation Xrotation Yrotation
            JOINT HandLeft
            {
              OFFSET 4.424387 0.430044 -5.941154
              CHANNELS 3 Zrotation Xrotation Yrotation
              JOINT HandTipLeft
              {
                OFFSET 3.464529 0.447341 -4.291851
                CHANNELS 3 Zrotation Xrotation Yrotation
                End Site
                {
                  OFFSET 0 0 0
                }
              }
              JOINT ThumbLeft
              {
                OFFSET -2.807095 4.765044 -2.554727
                CHANNELS 3 Zrotation Xrotation Yrotation
                End Site
                {
                  OFFSET 0 0 0
                }
              }
            }
          }
        }
      }
      JOINT ShoulderRight
      {
        OFFSET -15.506428 -3.649972 18.506648
        CHANNELS 3 Zrotation Xrotation Yrotation
        JOINT ElbowRight
        {
          OFFSET 9.120949 6.074982 -23.390199
          CHANNELS 3 Zrotation Xrotation Yrotation
          JOINT WristRight
          {
            OFFSET 5.983674 -13.287592 -21.183139
            CHANNELS 3 Zrotation Xrotation Yrotation
            JOINT HandRight
            {
              OFFSET 3.612726 -2.807062 -5.954008
              CHANNELS 3 Zrotation Xrotation Yrotation
              JOINT HandTipRight
              {
                OFFSET -3.887471 -5.718349 -3.765588
                CHANNELS 3 Zrotation Xrotation Yrotation
                End Site
                {
                  OFFSET 0 0 0
                }
              }
              JOINT ThumbRight
              {
                OFFSET 2.959381 -4.140337 1.691128
                CHANNELS 3 Zrotation Xrotation Yrotation
                End Site
                {
                  OFFSET 0 0 0
                }
              }
            }
          }
        }
      }
    }
  }
  JOINT HipLeft
  {
    OFFSET 0.718651 1.298928 -2.713117
    CHANNELS 3 Zrotation Xrotation Yrotation
    JOINT KneeLeft
    {
      OFFSET -35.399660 -1.006792 -4.083394
      CHANNELS 3 Zrotation Xrotation Yrotation
      JOINT AnkleLeft
      {
        OFFSET 30.366604 -9.308817 18.159360
        CHANNELS 3 Zrotation Xrotation Yrotation
        JOINT FootLeft
        {
          OFFSET -5.789827 -5.510135 11.185846
          CHANNELS 3 Zrotation Xrotation Yrotation
          End Site
          {
            OFFSET 0 0 0
          }
        }
      }
    }
  }
  JOINT HipRight
  {
    OFFSET -2.529869 -3.351363 -2.841924
    CHANNELS 3 Zrotation Xrotation Yrotation
    JOINT KneeRight
    {
      OFFSET -14.102556 2.080817 -27.399891
      CHANNELS 3 Zrotation Xrotation Yrotation
      JOINT AnkleRight
      {
        OFFSET -11.504482 -14.971711 19.125729
        CHANNELS 3 Zrotation Xrotation Yrotation
        JOINT FootRight
        {
          OFFSET 8.932436 -3.587292 2.012407
          CHANNELS 3 Zrotation Xrotation Yrotation
          End Site
          {
            OFFSET 0 0 0
          }
        }
      }
    }
  }
}
MOTION
Frames: 6
Frame Time: 0.033333
93.012686 22.103608 392.365670 -0.000000 0.000000 177.729344 -0.000000 0.000000 -177.729344 -0.000000 0.000000 0.000000 -0.000000 0.000000 0.000000 0.000000 0.000000 0.000000 -0.000000 0.000000 0.000000 -0.000000 0.000000 0.000000 -0.000000 0.000000 0.000000 -0.000000 0.000000 0.000000 0.000000 0.000000 0.000000 0.000000 0.000000 0.000000 -0.000000 0.000000 0.000000 -0.000000 0.000000 0.000000 -0.000000 0.000000 0.000000 -0.000000 0.000000 0.000000 0.000000 0.000000 0.000000 0.000000 0.000000 0.000000 -0.000000 0.000000 -177.729344 -0.000000 0.000000 0.000000 -0.000000 0.000000 0.000000 0.000000 0.000000 0.000000 -0.000000 0.000000 -177.729344 -0.000000 0.000000 0.000000 -0.000000 0.000000 0.000000 0.000000 0.000000 0.000000
92.356710 21.875955 392.182857 -1.594873 -0.606847 -174.554233 -0.774712 -1.053295 174.457243 0.183312 0.435413 -0.037721 1.402568 0.064993 0.306454 0.000000 0.000000 0.000000 0.741948 -0.948636 0.140988 1.401376 0.034459 0.516240 -2.165802 -0.717242 -3.335629 2.748561 3.621585 1.442375 0.000000 0.000000 0.000000 0.000000 0.000000 0.000000 -0.379665 -3.785214 0.020332 -1.334139 0.558904 3.143254 -5.038046 -5.724558 2.670358 0.216131 15.138662 -4.175319 0.000000 0.000000 0.000000 0.000000 0.000000 0.000000 -1.932881 -0.348967 176.149413 -3.904661 0.421536 -8.632524 8.070993 13.893388 4.314073 0.000000 0.000000 0.000000 -1.645315 -0.452528 174.539289 -0.606344 -0.526492 -0.369136 -0.233984 1.370603 2.053838 0.000000 0.000000 0.000000
91.786025 21.709668 392.041590 -2.945307 -1.046691 -168.125186 -1.682544 -1.770472 167.941578 0.364013 0.799159 -0.060728 2.397986 -0.212901 0.542131 0.000000 0.000000 0.000000 1.959531 -2.141592 1.419269 1.937674 0.343522 -0.157094 -4.009111 -1.178017 -6.688470 4.973005 7.007941 2.999962 0.000000 0.000000 0.000000 0.000000 0.000000 0.000000 -0.926751 -7.569333 0.064919 -2.190183 1.698267 5.864325 -8.107464 -9.259089 3.888756 0.129464 26.781023 -5.793979 0.000000 0.000000 0.000000 0.000000 0.000000 0.000000 -3.614873 -0.171508 171.038833 -6.823808 1.096955 -15.587482 18.507735 40.485082 1.068207 0.000000 0.000000 0.000000 -3.019146 -0.458256 167.119444 -0.928074 -0.957821 0.360157 -0.660977 2.447980 3.666846 0.000000 0.000000 0.000000
91.300633 21.604748 391.941870 -4.042903 -1.316076 -163.742832 -2.558232 -2.236879 163.490193 0.534731 1.093263 -0.072621 3.009865 -0.809837 0.703006 0.000000 0.000000 0.000000 2.615069 -3.061027 1.986408 2.585397 0.441612 -0.198755 -5.387002 -1.334115 -9.943567 6.612290 9.992453 4.679283 0.000000 0.000000 0.000000 0.000000 0.000000 0.000000 -1.641543 -11.349447 0.135127 -2.611584 3.495457 8.124198 -9.505277 -10.820026 4.154376 -0.976153 34.761660 -5.854870 0.000000 0.000000 0.000000 0.000000 0.000000 0.000000 -4.943789 0.256382 167.682752 -8.637951 1.625042 -20.557188 59.214935 71.798968 -38.389701 0.000000 0.000000 0.000000 -4.165794 -0.055086 162.277814 -1.181598 -1.112547 0.703279 -1.219101 3.179445 4.677677 0.000000 0.000000 0.000000
90.900534 21.561195 391.883697 -4.882303 -1.413532 -161.865069 -3.277441 -2.580290 161.565797 0.689566 1.320174 -0.076322 3.251834 -1.716942 0.781209 0.000000 0.000000 0.000000 3.055033 -3.883010 2.448431 2.949904 0.494897 -0.231096 -6.145512 -1.145162 -12.963761 7.636659 12.400251 6.455151 0.000000 0.000000 0.000000 0.000000 0.000000 0.000000 -2.523174 -15.121363 0.232868 -2.642750 5.996944 9.893500 -9.500186 -10.806433 3.823731 -3.187276 39.415831 -5.142128 0.000000 0.000000 0.000000 0.000000 0.000000 0.000000 -5.912997 0.666821 166.509670 -9.364866 1.721725 -23.450075 137.956984 67.233466 -119.624389 0.000000 0.000000 0.000000 -4.995563 0.470377 159.977279 -1.300034 -1.047723 1.159338 -1.839289 3.508179 4.897281 0.000000 0.000000 0.000000
90.585727 21.579008 391.867071 -5.460640 -1.339014 -162.682597 -3.764018 -2.913852 162.359811 0.824127 1.482608 -0.074063 3.127694 -2.939231 0.765078 0.000000 0.000000 0.000000 3.280447 -4.610079 2.799246 2.984326 0.505903 -0.266137 -6.133194 -0.579699 -15.598623 8.054363 14.059643 8.259792 0.000000 0.000000 0.000000 0.000000 0.000000 0.000000 -3.569558 -18.879273 0.360658 -2.312762 9.228857 11.141593 -8.156197 -9.437849 3.044701 -6.381416 41.006179 -4.286436 0.000000 0.000000 0.000000 0.000000 0.000000 0.000000 -6.558574 0.875084 167.680986 -9.035830 1.246638 -24.244420 150.107550 54.953955 -135.910120 0.000000 0.000000 0.000000 -5.552633 0.961625 160.403181 -1.287654 -0.758861 1.728481 -2.453768 3.371807 4.121142 0.000000 0.000000 0.000000
